<svg width="37" height="36" viewBox="0 0 37 36" fill="none" xmlns="http://www.w3.org/2000/svg">
<path d="M6.5 13.5H30.5L29.2475 27.2715C29.1798 28.0169 28.8359 28.71 28.2833 29.2148C27.7307 29.7197 27.0094 29.9997 26.261 30H10.739C9.99056 29.9997 9.26925 29.7197 8.7167 29.2148C8.16414 28.71 7.82023 28.0169 7.7525 27.2715L6.5 13.5Z" stroke="black" stroke-linejoin="round"/>
<path d="M12.5 16.5V12C12.5 10.4087 13.1321 8.88258 14.2574 7.75736C15.3826 6.63214 16.9087 6 18.5 6C20.0913 6 21.6174 6.63214 22.7426 7.75736C23.8679 8.88258 24.5 10.4087 24.5 12V16.5" stroke="black" stroke-linecap="round"/>
</svg>
